<svg xmlns="http://www.w3.org/2000/svg" width="800" height="600" viewBox="0 0 800 600"><path fill="none" d="M462.182 338.182v-173.89L349.545 338.18"/><path fill="#121C2B" d="M781.327 221.563c-4.964-44.945-41.89-81.382-100.036-93.382l29.674-22.58s59.346-38.674 59.346-90.274c0-53.51-59.946-86.4-123.164-86.4-112.2 0-152.182 97.364-74.782 143.782l19.364-19.963c-33.6-58.037 17.345-96.71 55.418-96.71 41.89 0 70.31 22.583 70.31 59.347 0 33.545-19.364 64.473-42.546 82.527l-47.728 38.072c-9.654 7.09-16.745 14.836-16.745 23.836 0 9.654 7.745 14.836 13.527 14.836 12.872 0 22.582-19.363 35.454-29.672 47.673 10.31 65.128 50.29 65.128 87.054 0 47.073-21.873 78.49-75.382 78.928-35.564.327-52.964-13.69-63.928-25.31-15.49-15.49-19.255-37.8-34.09-37.8-10.965 0-16.965 9.982-16.855 18.982.164 14.618 15.273 37.582 43.638 53.836-9.655 11.945-26.62 17.51-62.782 17.51H508v-270h-18.218l-57.437 85.308-5.617 8.51H258.4s62.673-45.11 86.836-66 79.582-58.8 79.91-111.49c.27-49.31-42.056-81.11-106.255-85.8h-30.108c-94.31 8.78-123 110.89-61.636 143.18l19.364-19.963c-32.236-52.91 11.29-90.71 55.8-90.71 41.29 0 68.89 20.128 69.49 52.365.33 16.69-.926 37.69-37.962 76.582-11.236 11.782-27.655 27.382-46.746 42.49-54.818 43.528-89.782 65.73-89.782 65.73v27.98h131.618c44.563 0 59.127 1.8 65.018 16.637l-15.11 23.237-73.2 113.29v13.746h156.546v47.563c0 65.236-8.182 75.655-62.182 75.655v13.69h170.728v-13.69c-54 0-62.673-10.526-62.673-75.763v-47.455h94.527l1.8-30.98c14.346 4.58 30.764 7.417 49.2 7.417 68.563 0 121.69-43.364 127.745-97.364v-20.783zm-319.145 116.62H349.545L462.18 164.29v173.892z"/></svg>