<svg baseProfile="tiny" xmlns="http://www.w3.org/2000/svg" viewBox="0 0 1076.5 1103.8"><path fill="none" d="M491.4 805.7V486.9L284.8 805.7"/><path fill="#9797A3" d="M1076.5 591.9c-9.1-82.3-76.8-149.2-183.4-171.1l54.4-41.4s108.8-70.9 108.8-165.5c0-98.1-109.9-158.4-225.8-158.4-205.7 0-279 178.5-137.1 263.6l35.5-36.6c-61.5-106.4 31.9-177.3 101.7-177.3 76.8 0 128.9 41.4 128.9 108.8 0 61.5-35.5 118.2-78 151.3L793.8 435c-17.7 13-30.7 27.2-30.7 43.7 0 17.7 14.2 27.2 24.8 27.2 23.6 0 41.4-35.5 65-54.4 87.5 18.9 119.4 92.2 119.4 159.6 0 86.3-40.1 143.9-138.2 144.7-65.2.6-97.1-25.1-117.2-46.4-28.4-28.4-35.3-69.3-62.5-69.3-20.1 0-31.1 18.3-30.9 34.8.3 26.8 28 68.9 80 98.7-17.7 21.9-48.8 32.1-115.1 32.1h-13.2v-495H542L436.7 467.1l-10.3 15.6H117.8S232.7 400 277 361.7c44.3-38.3 145.9-107.8 146.5-204.4C423.9 66.9 346.3 8.6 228.7 0h-55.2C.5 16.1-52 203.3 60.5 262.5L96 225.9c-59.1-97 20.7-166.3 102.2-166.3 75.7 0 126.3 36.9 127.4 96 .6 30.6-1.7 69.1-69.6 140.4-20.6 21.6-50.7 50.2-85.7 77.9C69.9 453.7 5.8 494.5 5.8 494.5v51.3h241.3c81.7 0 108.4 3.3 119.2 30.5l-27.7 42.6-134.2 207.6v25.2h287v87.2c0 119.6-15 138.7-114 138.7v25.1h313v-25.1c-99 0-114.9-19.3-114.9-138.9v-87h173.3l3.3-56.8c26.3 8.4 56.4 13.6 90.2 13.6 125.7 0 223.1-79.5 234.2-178.5v-38.1zM491.4 805.7H284.8l206.5-318.8v318.8z"/></svg>