<svg baseProfile="tiny" xmlns="http://www.w3.org/2000/svg" viewBox="0 0 680 1100"><path fill="none" d="M454 620V301.2L247.5 620"/><path fill="#9797A3" d="M1039.1 406.2C1030 323.8 962.3 257 855.7 235l54.4-41.4s108.8-70.9 108.8-165.5c0-98.1-109.9-158.4-225.8-158.4-205.7 0-279 178.5-137.1 263.6l35.5-36.6C629.9-9.7 723.3-80.6 793.1-80.6 869.9-80.6 922-39.2 922 28.2c0 61.5-35.5 118.2-78 151.3l-87.5 69.8c-17.7 13-30.7 27.2-30.7 43.7 0 17.7 14.2 27.2 24.8 27.2 23.6 0 41.4-35.5 65-54.4C903 284.7 935 358 935 425.4c0 86.3-40.1 143.9-138.2 144.7-65.2.6-97.1-25.1-117.2-46.4-28.4-28.4-35.3-69.3-62.5-69.3-20.1 0-31.1 18.3-30.9 34.8.3 26.8 28 68.9 80 98.7-17.7 21.9-48.8 32.1-115.1 32.1H538V125h-33.4L399.3 281.4 389 297H80.4s114.9-82.7 159.2-121c44.3-38.3 145.9-107.8 146.5-204.4.5-90.4-77.1-148.7-194.8-157.3h-55.2C-36.8-169.6-89.4 17.6 23.1 76.8l35.5-36.6c-59.1-97 20.7-166.3 102.3-166.3 75.7 0 126.3 36.9 127.4 96 .6 30.6-1.7 69.1-69.6 140.4-20.6 21.6-50.7 50.2-85.7 77.9C32.5 268-31.6 308.7-31.6 308.7V360h241.3c81.7 0 108.4 3.3 119.2 30.5l-27.7 42.6L167 640.8V666h287v87.2c0 119.6-15 138.7-114 138.7V917h313v-25.1c-99 0-114.9-19.3-114.9-138.9v-87h173.3l3.3-56.8c26.3 8.4 56.4 13.6 90.2 13.6 125.7 0 223.1-79.5 234.2-178.5v-38.1zM454 620H247.5L454 301.2V620z"/></svg>