<svg xmlns="http://www.w3.org/2000/svg" xmlns:xlink="http://www.w3.org/1999/xlink" width="284.516" height="354" viewBox="0 0 284.516 354"><path fill="#837A70" d="M0 0h284.514v354H0z"/><path fill="#DBD6C5" d="M12.06 12.008h259.72v327.755H12.06z"/><defs><path id="a" d="M0 0h284.516v354H0z"/></defs><clipPath id="b"><use xlink:href="#a" overflow="visible"/></clipPath><path clip-path="url(#b)" fill="#1E3044" d="M251.112 306.01c0 7.98-4.73 11.95-12.122 11.95h-5.068v-23.903h5.068c7.266 0 12.122 4.096 12.122 11.952m2.998-.043c0-8.657-5.448-14.528-15.16-14.528h-7.942v29.14h7.814c9.375 0 15.288-5.66 15.288-14.613m-34.082 2.618H209.3l5.322-13.895 5.406 13.895zm7.656 11.94l-11.498-29.256h-3L201.7 320.58h2.956l3.59-9.42H221l3.722 9.365h2.962zM198.7 306.05c0 7.393-4.01 12.46-10.135 12.46s-10.18-5.067-10.18-12.543c0-7.39 4.013-12.46 10.137-12.46s10.18 5.07 10.18 12.544m2.997-.083c0-8.912-5.28-15.078-13.135-15.078-7.77 0-13.177 6.208-13.177 15.16 0 8.912 5.32 15.08 13.092 15.08 7.856 0 13.22-6.252 13.22-15.163m-36.213 1.35c4.013-.845 6.927-3.42 6.927-7.94 0-5.066-3.633-7.938-9.334-7.938h-7.434v29.14h2.915V307.7h3.76l9.204 12.853h3.437l-9.473-13.235zm3.97-7.77c0 3.717-2.703 5.66-7.01 5.66h-3.886v-11.193h4.393c4.223 0 6.504 1.985 6.504 5.533m-27.674 21.033v-2.62H129.07v-11.317h10.136l-.422-2.618h-9.714v-9.968h12.29v-2.618h-15.204v29.14h15.627zm-18.02 0l-.424-2.62h-11.235v-26.52h-2.914v29.14h14.572zm-18.302 0v-2.62H92.75v-11.317h10.136l-.422-2.618H92.75v-9.968h12.29v-2.618H89.835v29.14h15.626zm-19.05 0v-2.62H73.694v-11.317h10.137l-.423-2.618h-9.715v-9.968h12.29v-2.618H70.78v29.14h15.63zm-17.8-26.523l-.423-2.618H46.732v2.617h9.46v26.523h2.873v-26.523h9.545zm-22.318 18.837c0-4.267-2.196-6.378-7.602-8.742-4.477-1.985-5.87-3.252-5.87-5.913 0-2.535 1.9-4.563 5.32-4.563 2.45 0 4.478.76 6.125 1.858l.422-2.914c-1.52-.886-3.674-1.52-6.42-1.52-4.814 0-8.362 2.913-8.362 7.307 0 4.14 2.027 5.997 7.602 8.447 4.435 1.94 5.87 3.378 5.87 6.25 0 3.294-2.575 5.236-5.996 5.236-2.956 0-5.66-1.056-7.433-2.195l-.422 2.956c1.858 1.015 4.477 1.816 7.73 1.816 5.11 0 9.037-3.04 9.037-8.022M254.263 264.057l-.285-1.768h-14.48v1.767h6.385v17.903h1.938v-17.903h6.443zm-21.898 9.807h-7.242l3.593-9.38 3.65 9.38zm5.164 8.096l-7.76-19.785h-2.024l-7.754 19.785h1.996l2.422-6.356h8.61l2.482 6.356h2.027zm-32.896-5.188c0-2.88-1.483-4.306-5.132-5.902-3.022-1.34-3.963-2.195-3.963-3.99 0-1.71 1.282-3.08 3.592-3.08 1.653 0 3.022.514 4.134 1.255l.285-1.967c-1.026-.6-2.48-1.026-4.333-1.026-3.25 0-5.645 1.967-5.645 4.932 0 2.794 1.37 4.05 5.13 5.702 2.995 1.31 3.964 2.28 3.964 4.22 0 2.223-1.738 3.534-4.047 3.534-1.997 0-3.822-.712-5.02-1.482l-.284 1.996c1.254.685 3.02 1.226 5.217 1.226 3.45-.002 6.1-2.054 6.1-5.418m-18.04 5.188v-1.767h-8.582v-7.642h6.843l-.284-1.766h-6.56v-6.73h8.297v-1.767h-10.263v19.67h10.548zm-16.87-1.596l-.285-1.882c-1.597 1.226-3.507 2.053-5.615 2.053-4.277 0-6.985-3.393-6.985-8.44 0-4.987 2.68-8.408 7.013-8.408 1.997 0 3.707.798 5.247 1.91l.312-1.995c-1.482-1.027-3.308-1.683-5.53-1.683-5.417 0-9.066 4.19-9.066 10.233 0 6.073 3.592 10.178 8.924 10.178 2.336 0 4.502-.853 5.985-1.966m-20.9 1.596v-19.67h-1.855v16.05l-11.146-16.05h-1.853v19.67h1.852v-16.562l11.49 16.562h1.51zm-21.89 0v-1.767h-8.582v-7.642h6.843l-.285-1.766h-6.557v-6.73h8.297v-1.767h-10.263v19.67h10.548zm-18.715-9.835c0 5.388-3.193 8.068-8.182 8.068h-3.42v-16.137h3.42c4.903 0 8.182 2.766 8.182 8.07m2.024-.03c0-5.844-3.677-9.807-10.234-9.807h-5.36v19.67h5.274c6.328 0 10.32-3.82 10.32-9.864m-24.977-9.807h-1.967v19.67h1.967v-19.67zm-9.302 14.482c0-2.88-1.482-4.306-5.132-5.902-3.02-1.34-3.96-2.195-3.96-3.99 0-1.71 1.282-3.08 3.59-3.08 1.654 0 3.023.514 4.135 1.255l.285-1.967c-1.027-.6-2.48-1.026-4.334-1.026-3.25 0-5.644 1.967-5.644 4.932 0 2.794 1.368 4.05 5.13 5.702 2.995 1.31 3.964 2.28 3.964 4.22 0 2.223-1.74 3.534-4.048 3.534-1.996 0-3.82-.712-5.018-1.482l-.285 1.996c1.254.685 3.022 1.226 5.217 1.226 3.45-.002 6.1-2.054 6.1-5.418m-16.82 5.188v-1.767h-8.58v-7.642h6.842l-.285-1.766H50.56v-6.73h8.296v-1.767H48.595v19.67h10.548zm-22.513-8.95c2.708-.57 4.675-2.31 4.675-5.36 0-3.42-2.452-5.36-6.3-5.36h-5.018v19.67h1.967v-8.694h2.537l6.235 8.637h2.37l-6.466-8.894zm2.68-5.247c0 2.51-1.826 3.82-4.733 3.82h-2.623v-7.555h2.965c2.85 0 4.39 1.34 4.39 3.735M29.837 141.012v89.355h104.187l.004-23.6h-61.49v-5.52l34.607-53.678c-2.124-4.427-4.916-6.56-21.2-6.56H29.838zm104.19-12.556l-44.34 68.435h44.34v-68.434zM98.365 58.06c-.132-13.382-11.022-21.202-27.24-21.202-17.486 0-34.593 14.867-21.922 35.646L41.6 80.36c-6.23-3.277-10.09-8.387-11.763-14.22v63.933s26.37-17.378 44.2-33.495c21.76-19.672 24.42-29.142 24.327-38.518M47.248 29.78h-17.41v21.933c2.206-8.45 8.152-16.642 17.41-21.934m206.756 32.738v-32.74H100.49c11.853 5.743 18.907 15.41 18.907 28.028 0 20.272-21 34.828-30.49 43.04-9.487 8.214-35.07 26.776-35.07 26.776h66.112l24.858-36.844h7.16v106.11h2.82c14.175 0 20.828-2.238 24.62-6.907-11.147-6.34-17.11-15.338-17.11-21.218 0-3.547 2.277-7.446 6.585-7.446 5.83 0 7.35 8.87 13.43 14.95 4.31 4.563 11.15 9.884 24.835 9.884 21.033 0 29.906-12.573 29.906-31.072 0-14.443-6.842-30.155-25.594-34.21-5.068 4.055-8.87 11.656-13.938 11.656-2.28 0-5.322-2.027-5.322-5.828 0-3.548 2.787-6.59 6.59-9.376l18.75-14.952c9.124-7.095 16.727-19.26 16.727-32.436 0-14.445-11.15-23.314-27.62-23.314-14.954 0-34.973 15.205-21.796 38.012l-7.6 7.854c-30.41-18.245-14.7-56.51 29.395-56.51 21.766.003 42.552 9.93 47.36 26.544m0 73.128V77.403c-4.52 16.424-22.27 28.007-22.27 28.007l-11.658 8.87c15.72 3.242 27.476 11.058 33.927 21.366m0 94.72v-55.83c-8.245 13.487-24.857 22.863-44.824 22.863-7.244 0-13.693-1.103-19.343-2.885l-.703 12.252H151.97l.005 23.6h102.03z"/></svg>