<svg xmlns="http://www.w3.org/2000/svg" xmlns:xlink="http://www.w3.org/1999/xlink" width="259.718" height="327.755" viewBox="0 0 259.718 327.755"><path fill="#DBD6C5" d="M0 0h259.718v327.755H0z"/><defs><path id="a" d="M-12.06-12.008h284.515v354H-12.06z"/></defs><clipPath id="b"><use xlink:href="#a" overflow="visible"/></clipPath><path clip-path="url(#b)" fill="#1E3044" d="M239.05 294c0 7.983-4.73 11.953-12.12 11.953h-5.07V282.05h5.07c7.265 0 12.12 4.096 12.12 11.95m3-.04c0-8.658-5.45-14.53-15.162-14.53h-7.94v29.143h7.813c9.376 0 15.29-5.66 15.29-14.614m-34.083 2.617H197.24l5.322-13.895 5.405 13.895zm7.656 11.94l-11.498-29.255h-3l-11.486 29.31h2.955l3.59-9.418h12.755l3.722 9.364h2.96zm-28.983-14.474c0 7.392-4.012 12.46-10.136 12.46s-10.18-5.068-10.18-12.544c0-7.392 4.013-12.46 10.137-12.46s10.18 5.068 10.18 12.543m2.998-.084c0-8.913-5.28-15.08-13.134-15.08-7.77 0-13.177 6.21-13.177 15.163 0 8.91 5.32 15.078 13.092 15.078 7.855 0 13.218-6.25 13.218-15.16m-36.212 1.35c4.013-.845 6.927-3.42 6.927-7.94 0-5.066-3.633-7.938-9.334-7.938h-7.435v29.142h2.915V295.69h3.758l9.205 12.854h3.437l-9.474-13.233zm3.97-7.77c0 3.716-2.703 5.658-7.01 5.658H146.5v-11.192h4.392c4.223 0 6.504 1.985 6.504 5.533m-27.674 21.032v-2.62H117.01v-11.317h10.135l-.422-2.618h-9.714v-9.968h12.29v-2.62h-15.205v29.143h15.627zm-18.02 0l-.424-2.62h-11.234v-26.52H97.13v29.14h14.57zm-18.302 0v-2.62H80.688v-11.317h10.136l-.422-2.618h-9.714v-9.968h12.29v-2.62H77.774v29.143H93.4zm-19.052 0v-2.62H61.634v-11.317H71.77l-.422-2.618h-9.714v-9.968h12.29v-2.62H58.72v29.143h15.628zm-17.8-26.523l-.422-2.62H34.67v2.62h9.462v26.522h2.872V282.05h9.545zm-22.317 18.836c0-4.267-2.195-6.378-7.6-8.742-4.478-1.985-5.872-3.252-5.872-5.913 0-2.533 1.9-4.56 5.322-4.56 2.45 0 4.477.76 6.124 1.857l.422-2.914c-1.52-.887-3.674-1.52-6.42-1.52-4.814 0-8.362 2.912-8.362 7.306 0 4.138 2.027 5.996 7.602 8.446 4.435 1.94 5.87 3.378 5.87 6.25 0 3.294-2.575 5.236-5.996 5.236-2.957 0-5.66-1.056-7.434-2.195l-.422 2.956c1.858 1.014 4.477 1.815 7.73 1.815 5.11 0 9.037-3.04 9.037-8.022M242.202 252.05l-.285-1.77h-14.48v1.77h6.385v17.902h1.938V252.05h6.442zm-21.898 9.806h-7.242l3.593-9.38 3.65 9.38zm5.164 8.096l-7.76-19.785h-2.023l-7.754 19.785h1.997l2.422-6.356h8.608l2.483 6.356h2.028zm-32.895-5.187c0-2.88-1.483-4.306-5.132-5.902-3.02-1.34-3.962-2.195-3.962-3.99 0-1.71 1.283-3.08 3.593-3.08 1.654 0 3.023.514 4.135 1.255l.285-1.967c-1.027-.598-2.48-1.025-4.334-1.025-3.25 0-5.645 1.967-5.645 4.932 0 2.794 1.37 4.05 5.132 5.702 2.994 1.31 3.963 2.28 3.963 4.218 0 2.224-1.738 3.535-4.047 3.535-1.996 0-3.82-.712-5.02-1.482l-.283 1.997c1.254.685 3.02 1.226 5.217 1.226 3.45-.002 6.1-2.055 6.1-5.418m-18.04 5.187v-1.767h-8.582v-7.642h6.842l-.284-1.767h-6.558v-6.73h8.296v-1.767h-10.263v19.67h10.548zm-16.87-1.596l-.285-1.882c-1.597 1.226-3.507 2.053-5.615 2.053-4.277 0-6.985-3.393-6.985-8.44 0-4.987 2.68-8.408 7.013-8.408 1.996 0 3.706.797 5.246 1.908l.312-1.994c-1.48-1.027-3.307-1.683-5.53-1.683-5.416 0-9.065 4.19-9.065 10.235 0 6.073 3.592 10.178 8.924 10.178 2.336 0 4.502-.854 5.985-1.967m-20.9 1.596v-19.67h-1.855v16.05l-11.146-16.05h-1.852v19.67h1.853V253.39l11.49 16.562h1.51zm-21.89 0v-1.767h-8.582v-7.642h6.842l-.285-1.767h-6.557v-6.73h8.296v-1.767h-10.263v19.67h10.548zm-18.715-9.835c0 5.388-3.193 8.068-8.182 8.068h-3.42v-16.137h3.42c4.903 0 8.182 2.766 8.182 8.07m2.024-.03c0-5.844-3.676-9.807-10.233-9.807h-5.36v19.672h5.274c6.33 0 10.32-3.82 10.32-9.864m-24.976-9.807h-1.967v19.672h1.967v-19.67zm-9.302 14.485c0-2.88-1.482-4.306-5.132-5.902-3.022-1.34-3.962-2.195-3.962-3.99 0-1.71 1.283-3.08 3.592-3.08 1.653 0 3.022.514 4.134 1.255l.285-1.967c-1.028-.598-2.482-1.025-4.335-1.025-3.25 0-5.644 1.967-5.644 4.932 0 2.794 1.37 4.05 5.132 5.702 2.994 1.31 3.963 2.28 3.963 4.218 0 2.224-1.74 3.535-4.048 3.535-1.996 0-3.82-.712-5.018-1.482l-.286 1.997c1.254.685 3.022 1.226 5.217 1.226 3.45-.002 6.102-2.055 6.102-5.418m-16.82 5.187v-1.767H38.5v-7.642h6.842l-.285-1.767H38.5v-6.73h8.296v-1.767H36.534v19.67h10.548zm-22.514-8.95c2.71-.57 4.676-2.31 4.676-5.36 0-3.42-2.452-5.36-6.3-5.36h-5.018v19.67h1.967v-8.694h2.537l6.234 8.637h2.37L24.567 261zm2.68-5.247c0 2.51-1.825 3.82-4.732 3.82h-2.623v-7.555h2.965c2.85 0 4.39 1.34 4.39 3.735M17.776 129.004v89.355h104.187l.004-23.6h-61.49v-5.52l34.607-53.68c-2.124-4.425-4.916-6.558-21.2-6.558H17.777zm104.19-12.556l-44.34 68.435h44.34v-68.435zM86.304 46.052C86.17 32.67 75.28 24.85 59.063 24.85c-17.486 0-34.593 14.867-21.922 35.646l-7.602 7.856c-6.228-3.277-10.088-8.387-11.762-14.22v63.933s26.37-17.378 44.2-33.495c21.76-19.672 24.42-29.142 24.327-38.518m-51.116-28.28h-17.41v21.933c2.206-8.45 8.152-16.642 17.41-21.934m206.756 32.74V17.77H88.428c11.854 5.743 18.908 15.41 18.908 28.028 0 20.272-21 34.828-30.49 43.04-9.487 8.214-35.07 26.776-35.07 26.776h66.112l24.86-36.844h7.16v106.11h2.82c14.174 0 20.827-2.238 24.62-6.907-11.148-6.34-17.11-15.34-17.11-21.22 0-3.546 2.276-7.445 6.584-7.445 5.83 0 7.35 8.87 13.43 14.95 4.31 4.563 11.15 9.884 24.835 9.884 21.033 0 29.906-12.573 29.906-31.072 0-14.443-6.842-30.155-25.594-34.21-5.07 4.055-8.87 11.656-13.94 11.656-2.28 0-5.32-2.027-5.32-5.828 0-3.548 2.786-6.59 6.588-9.376L205.48 90.36c9.123-7.095 16.726-19.26 16.726-32.436 0-14.445-11.15-23.314-27.62-23.314-14.954 0-34.973 15.205-21.796 38.012l-7.602 7.854c-30.41-18.245-14.698-56.51 29.396-56.51 21.766.003 42.552 9.93 47.36 26.544m0 73.128V65.396c-4.52 16.424-22.27 28.007-22.27 28.007l-11.658 8.87c15.72 3.242 27.476 11.057 33.927 21.365m0 94.72v-55.83c-8.245 13.487-24.857 22.863-44.824 22.863-7.245 0-13.694-1.1-19.344-2.883l-.703 12.252h-37.165l.006 23.6h102.03z"/></svg>