<svg width="247.5" height="322.1" xmlns="http://www.w3.org/2000/svg"><title>background</title><path fill="none" d="M-1-1h249.5v324.1H-1z"/><g><title>Layer 1</title><path d="M244.4 305.9c0-8.7-5.4-13.2-13.4-13.2h-5.6v26.5h5.6c8.2-.1 13.4-4.5 13.4-13.3zM154 298.7c0-3.9-2.5-6.1-7.2-6.1h-4.9V305h4.3c4.8 0 7.8-2.2 7.8-6.3zM77.2 259.4h-3.8v17.9h3.8c5.5 0 9.1-3 9.1-8.9-.1-5.9-3.7-9-9.1-9zM215.6 270.3h8.1l-4.1-10.4M204 293.3l-5.9 15.4H210M175.2 319.7c6.8 0 11.2-5.6 11.2-13.8 0-8.3-4.5-13.9-11.3-13.9s-11.2 5.6-11.2 13.8c0 8.3 4.5 13.9 11.3 13.9zM5.1 259.4H1.8v8.4h2.9c3.2 0 5.2-1.5 5.2-4.2s-1.7-4.2-4.8-4.2z" fill="none"/><path fill="#1E3044" d="M82.7 292.6v-2.9H65.9V322h17.3v-2.9H69.1v-12.5h11.2l-.5-2.9H69.1v-11.1M175.1 322.6c8.7 0 14.6-6.9 14.6-16.8s-5.8-16.7-14.5-16.7c-8.6 0-14.6 6.9-14.6 16.8s5.9 16.7 14.5 16.7zm0-30.6c6.8 0 11.3 5.6 11.3 13.9 0 8.2-4.4 13.8-11.2 13.8s-11.3-5.6-11.3-13.9c0-8.2 4.4-13.8 11.2-13.8zM31.8 322v-29.4h10.6l-.5-2.9H18.1v2.9h10.5V322M7.8 319.5c-3.3 0-6.3-1.2-8.2-2.4l-.5 3.3c2.1 1.1 5 2 8.6 2 5.7 0 10-3.4 10-8.9 0-4.7-2.4-7.1-8.4-9.7-5-2.2-6.5-3.6-6.5-6.5 0-2.8 2.1-5.1 5.9-5.1 2.7 0 5 .8 6.8 2.1l.5-3.2c-1.7-1-4.1-1.7-7.1-1.7-5.3 0-9.3 3.2-9.3 8.1 0 4.6 2.2 6.6 8.4 9.4 4.9 2.2 6.5 3.7 6.5 6.9-.1 3.6-2.9 5.7-6.7 5.7zM197 311.6h14.1l4.1 10.4h3.3l-12.7-32.4h-3.4L189.7 322h3.3l4-10.4zm7-18.3l6 15.4h-11.9l5.9-15.4zM103 319.1H90.5v-29.4h-3.2V322h16.1M62.1 319.1H48v-12.5h11.2l-.5-2.9H48v-11.1h13.6v-2.9H44.8V322h17.3M247.7 305.8c0-9.6-6-16.1-16.8-16.1h-8.8V322h8.7c10.4 0 16.9-6.3 16.9-16.2zm-22.3-13.2h5.6c8 0 13.4 4.5 13.4 13.2 0 8.8-5.2 13.2-13.4 13.2h-5.6v-26.4zM142 307.7h4.2l10.2 14.2h3.8l-10.5-14.7c4.4-.9 7.7-3.8 7.7-8.8 0-5.6-4-8.8-10.3-8.8h-8.2V322h3.2v-14.3h-.1zm0-15.1h4.9c4.7 0 7.2 2.2 7.2 6.1 0 4.1-3 6.3-7.8 6.3H142v-12.4zM123.4 319.1h-14.1v-12.5h11.2l-.4-2.9h-10.8v-11.1h13.6v-2.9h-16.8V322h17.3M88.5 268.3c0-6.5-4.1-10.9-11.3-10.9h-5.9v21.8h5.8c6.9 0 11.4-4.2 11.4-10.9zm-11.3 9h-3.8v-17.9h3.8c5.4 0 9.1 3.1 9.1 8.9-.1 6-3.6 9-9.1 9zM186.3 277.6c-2.2 0-4.2-.8-5.6-1.6l-.3 2.2c1.4.8 3.3 1.4 5.8 1.4 3.8 0 6.8-2.3 6.8-6 0-3.2-1.6-4.8-5.7-6.5-3.3-1.5-4.4-2.4-4.4-4.4 0-1.9 1.4-3.4 4-3.4 1.8 0 3.3.6 4.6 1.4l.3-2.2c-1.1-.7-2.7-1.1-4.8-1.1-3.6 0-6.2 2.2-6.2 5.5 0 3.1 1.5 4.5 5.7 6.3 3.3 1.5 4.4 2.5 4.4 4.7-.1 2.2-2 3.7-4.6 3.7zM131.2 279.2v-21.8h-2.1v17.8l-12.3-17.8h-2.1v21.8h2.1v-18.3l12.7 18.3M31.6 259.4v-2H20.2v21.8h11.7v-1.9h-9.5v-8.5H30l-.4-1.9h-7.2v-7.5M172.7 259.4v-2h-11.4v21.8H173v-1.9h-9.5v-8.5h7.6l-.4-1.9h-7.2v-7.5M106.9 277.3h-9.5v-8.5h7.6l-.3-1.9h-7.3v-7.5h9.2v-2H95.3v21.8h11.6M227.1 279.2h2.2l-8.6-21.9h-2.2l-8.6 21.9h2.2l2.7-7h9.5l2.8 7zm-11.5-8.9l4-10.4 4 10.4h-8zM12.1 263.4c0-3.8-2.7-5.9-7-5.9H-.5v21.8h2.2v-9.6h2.8l6.9 9.6H14l-7.2-9.8c3.2-.8 5.3-2.7 5.3-6.1zm-7.4 4.3H1.8v-8.4h3.3c3.2 0 4.9 1.5 4.9 4.1-.1 2.9-2.1 4.3-5.3 4.3zM231.6 257.4v2h7v19.8h2.2v-19.8h7.1l-.3-2M147.8 259c2.2 0 4.1.9 5.8 2.1l.3-2.2c-1.6-1.1-3.7-1.9-6.1-1.9-6 0-10 4.6-10 11.3 0 6.7 4 11.3 9.9 11.3 2.6 0 5-.9 6.6-2.2l-.3-2.1c-1.8 1.4-3.9 2.3-6.2 2.3-4.7 0-7.7-3.8-7.7-9.3-.1-5.5 2.9-9.3 7.7-9.3zM58.6 257.4h2.2v21.8h-2.2zM50.5 273.5c0-3.2-1.6-4.8-5.7-6.5-3.3-1.5-4.4-2.4-4.4-4.4 0-1.9 1.4-3.4 4-3.4 1.8 0 3.3.6 4.6 1.4l.3-2.2c-1.1-.7-2.7-1.1-4.8-1.1-3.6 0-6.2 2.2-6.2 5.5 0 3.1 1.5 4.5 5.7 6.3 3.3 1.5 4.4 2.5 4.4 4.7 0 2.5-1.9 3.9-4.5 3.9-2.2 0-4.2-.8-5.6-1.6l-.3 2.2c1.4.8 3.3 1.4 5.8 1.4 3.8-.2 6.7-2.5 6.7-6.2zM247.6 160.3c-9.1 14.9-27.5 25.3-49.6 25.3-8 0-15.2-1.2-21.4-3.2l-.8 13.6h-41.1v26.1h113v-61.8h-.1zM18.7 0H-.6v24.3C1.9 14.9 8.5 5.8 18.7 0zM-.6 111s29.2-19.2 48.9-37.1c24.1-21.8 27-32.3 26.9-42.7C75.1 16.4 63 7.7 45 7.7c-19.4 0-38.3 16.5-24.3 39.5L12.5 56c-6.9-3.6-11.2-9.3-13-15.7V111h-.1zM114.8 185v-75.8L65.7 185"/><path d="M64.8 78.7C54.3 87.8 26 108.4 26 108.4h73.2l27.5-40.8h7.9V185h3.1c15.7 0 23.1-2.5 27.3-7.6-12.3-7-18.9-17-18.9-23.5 0-3.9 2.5-8.2 7.3-8.2 6.5 0 8.1 9.8 14.9 16.6 4.8 5.1 12.3 10.9 27.5 10.9 23.3 0 33.1-13.9 33.1-34.4 0-16-7.6-33.4-28.3-37.9-5.6 4.5-9.8 12.9-15.4 12.9-2.5 0-5.9-2.2-5.9-6.5 0-3.9 3.1-7.3 7.3-10.4l20.8-16.6c10.1-7.9 18.5-21.3 18.5-35.9 0-16-12.3-25.8-30.6-25.8-16.6 0-38.7 16.8-24.1 42.1l-8.4 8.7c-33.7-20.2-16.3-62.6 32.5-62.6 24.1 0 47.1 11 52.4 29.4V0h-170c13.1 6.4 20.9 17.1 20.9 31 0 22.5-23.3 38.6-33.8 47.7z" fill="#1E3044"/><path d="M247.6 52.7c-5 18.2-24.7 31-24.7 31L210 93.5c17.4 3.6 30.4 12.2 37.6 23.7V52.7zM-.6 222.1h115.4V196H46.7v-6.1L85 130.5c-2.4-4.9-5.4-7.3-23.5-7.3H-.6v98.9z" fill="#1E3044"/></g></svg>