<?xml version="1.0" encoding="utf-8"?>
<!-- Generator: Adobe Illustrator 15.0.2, SVG Export Plug-In . SVG Version: 6.00 Build 0)  -->
<!DOCTYPE svg PUBLIC "-//W3C//DTD SVG 1.1//EN" "http://www.w3.org/Graphics/SVG/1.1/DTD/svg11.dtd">
<svg version="1.1" id="Layer_1" xmlns="http://www.w3.org/2000/svg" xmlns:xlink="http://www.w3.org/1999/xlink" x="0px" y="0px"
	 width="800px" height="600px" viewBox="0 0 800 600" enable-background="new 0 0 800 600" xml:space="preserve">
<g>
	<polygon fill="none" points="462.182,338.182 462.182,164.291 349.545,338.182 	"/>
	<path fill="#121C2B" d="M781.327,221.563c-4.964-44.945-41.891-81.382-100.036-93.382l29.673-22.582
		c0,0,59.346-38.673,59.346-90.273c0-53.509-59.946-86.4-123.164-86.4c-112.2,0-152.182,97.364-74.782,143.782l19.364-19.963
		c-33.601-58.037,17.345-96.709,55.418-96.709c41.891,0,70.31,22.582,70.31,59.346c0,33.545-19.364,64.473-42.546,82.527
		l-47.728,38.073c-9.654,7.091-16.745,14.836-16.745,23.836c0,9.654,7.745,14.836,13.527,14.836
		c12.872,0,22.582-19.363,35.454-29.672c47.673,10.309,65.128,50.291,65.128,87.054c0,47.073-21.873,78.491-75.382,78.928
		c-35.564,0.327-52.964-13.691-63.928-25.31c-15.491-15.491-19.255-37.8-34.091-37.8c-10.964,0-16.964,9.982-16.854,18.982
		c0.163,14.618,15.272,37.582,43.637,53.836c-9.655,11.945-26.619,17.509-62.782,17.509H508v-270h-18.218l-57.437,85.309
		L426.728,162H258.4c0,0,62.673-45.109,86.836-66s79.582-58.8,79.909-111.491c0.272-49.309-42.055-81.109-106.254-85.8h-30.109
		c-94.309,8.782-123,110.891-61.636,143.182l19.364-19.964c-32.236-52.909,11.291-90.709,55.8-90.709
		c41.291,0,68.891,20.127,69.491,52.364c0.328,16.69-0.927,37.69-37.963,76.582c-11.236,11.782-27.655,27.382-46.746,42.491
		c-54.818,43.527-89.782,65.728-89.782,65.728v27.982h131.618c44.563,0,59.127,1.8,65.018,16.636l-15.109,23.236l-73.2,113.291
		v13.745h156.545v47.563c0,65.236-8.182,75.655-62.182,75.655v13.69h170.728v-13.69c-54,0-62.673-10.527-62.673-75.764v-47.455
		h94.527l1.8-30.981c14.346,4.582,30.764,7.418,49.2,7.418c68.563,0,121.69-43.363,127.745-97.363V221.563z M462.182,338.182
		H349.545l112.636-173.891V338.182z"/>
</g>
</svg>
