<?xml version="1.0" encoding="utf-8"?>
<!-- Generator: Adobe Illustrator 18.1.1, SVG Export Plug-In . SVG Version: 6.00 Build 0)  -->
<svg version="1.1" baseProfile="tiny" id="Layer_1" xmlns="http://www.w3.org/2000/svg" xmlns:xlink="http://www.w3.org/1999/xlink"
	 x="0px" y="0px" viewBox="0 0 315 392" xml:space="preserve">
<rect y="0" fill="#837A70" width="315" height="392"/>
<rect x="13.4" y="13.3" fill="#DBD6C5" width="287.5" height="362.9"/>
<g>
	<path fill="none" d="M278,338.9c0-8.7-5.4-13.2-13.4-13.2H259v26.5h5.6C272.8,352.1,278,347.7,278,338.9z"/>
	<path fill="none" d="M187.6,331.7c0-3.9-2.5-6.1-7.2-6.1h-4.9V338h4.3C184.6,338,187.6,335.8,187.6,331.7z"/>
	<path fill="none" d="M110.8,292.4H107v17.9h3.8c5.5,0,9.1-3,9.1-8.9C119.8,295.5,116.2,292.4,110.8,292.4z"/>
	<polygon fill="none" points="249.2,303.3 257.3,303.3 253.2,292.9 	"/>
	<polygon fill="none" points="237.6,326.3 231.7,341.7 243.6,341.7 	"/>
	<path fill="none" d="M208.8,352.7c6.8,0,11.2-5.6,11.2-13.8c0-8.3-4.5-13.9-11.3-13.9s-11.2,5.6-11.2,13.8
		C197.5,347.1,202,352.7,208.8,352.7z"/>
	<path fill="none" d="M38.7,292.4h-3.3v8.4h2.9c3.2,0,5.2-1.5,5.2-4.2C43.5,293.9,41.8,292.4,38.7,292.4z"/>
	<polygon fill="#1E3044" points="116.3,325.6 116.3,322.7 99.5,322.7 99.5,355 116.8,355 116.8,352.1 102.7,352.1 102.7,339.6 
		113.9,339.6 113.4,336.7 102.7,336.7 102.7,325.6 	"/>
	<path fill="#1E3044" d="M208.7,355.6c8.7,0,14.6-6.9,14.6-16.8c0-9.9-5.8-16.7-14.5-16.7c-8.6,0-14.6,6.9-14.6,16.8
		C194.2,348.8,200.1,355.6,208.7,355.6z M208.7,325c6.8,0,11.3,5.6,11.3,13.9c0,8.2-4.4,13.8-11.2,13.8s-11.3-5.6-11.3-13.9
		C197.5,330.6,201.9,325,208.7,325z"/>
	<polygon fill="#1E3044" points="65.4,355 65.4,325.6 76,325.6 75.5,322.7 51.7,322.7 51.7,325.6 62.2,325.6 62.2,355 	"/>
	<path fill="#1E3044" d="M41.4,352.5c-3.3,0-6.3-1.2-8.2-2.4l-0.5,3.3c2.1,1.1,5,2,8.6,2c5.7,0,10-3.4,10-8.9c0-4.7-2.4-7.1-8.4-9.7
		c-5-2.2-6.5-3.6-6.5-6.5c0-2.8,2.1-5.1,5.9-5.1c2.7,0,5,0.8,6.8,2.1l0.5-3.2c-1.7-1-4.1-1.7-7.1-1.7c-5.3,0-9.3,3.2-9.3,8.1
		c0,4.6,2.2,6.6,8.4,9.4c4.9,2.2,6.5,3.7,6.5,6.9C48,350.4,45.2,352.5,41.4,352.5z"/>
	<path fill="#1E3044" d="M230.6,344.6h14.1l4.1,10.4h3.3l-12.7-32.4H236L223.3,355h3.3L230.6,344.6z M237.6,326.3l6,15.4h-11.9
		L237.6,326.3z"/>
	<polygon fill="#1E3044" points="136.6,352.1 124.1,352.1 124.1,322.7 120.9,322.7 120.9,355 137,355 	"/>
	<polygon fill="#1E3044" points="95.7,352.1 81.6,352.1 81.6,339.6 92.8,339.6 92.3,336.7 81.6,336.7 81.6,325.6 95.2,325.6 
		95.2,322.7 78.4,322.7 78.4,355 95.7,355 	"/>
	<path fill="#1E3044" d="M281.3,338.8c0-9.6-6-16.1-16.8-16.1h-8.8V355h8.7C274.8,355,281.3,348.7,281.3,338.8z M259,325.6h5.6
		c8,0,13.4,4.5,13.4,13.2c0,8.8-5.2,13.2-13.4,13.2H259V325.6z"/>
	<path fill="#1E3044" d="M175.6,340.7h4.2l10.2,14.2h3.8l-10.5-14.7c4.4-0.9,7.7-3.8,7.7-8.8c0-5.6-4-8.8-10.3-8.8h-8.2V355h3.2
		V340.7z M175.6,325.6h4.9c4.7,0,7.2,2.2,7.2,6.1c0,4.1-3,6.3-7.8,6.3h-4.3V325.6z"/>
	<polygon fill="#1E3044" points="157,352.1 142.9,352.1 142.9,339.6 154.1,339.6 153.7,336.7 142.9,336.7 142.9,325.6 156.5,325.6 
		156.5,322.7 139.7,322.7 139.7,355 157,355 	"/>
	<path fill="#1E3044" d="M122.1,301.3c0-6.5-4.1-10.9-11.3-10.9h-5.9v21.8h5.8C117.6,312.2,122.1,308,122.1,301.3z M110.8,310.3H107
		v-17.9h3.8c5.4,0,9.1,3.1,9.1,8.9C119.8,307.3,116.3,310.3,110.8,310.3z"/>
	<path fill="#1E3044" d="M219.9,310.6c-2.2,0-4.2-0.8-5.6-1.6l-0.3,2.2c1.4,0.8,3.3,1.4,5.8,1.4c3.8,0,6.8-2.3,6.8-6
		c0-3.2-1.6-4.8-5.7-6.5c-3.3-1.5-4.4-2.4-4.4-4.4c0-1.9,1.4-3.4,4-3.4c1.8,0,3.3,0.6,4.6,1.4l0.3-2.2c-1.1-0.7-2.7-1.1-4.8-1.1
		c-3.6,0-6.2,2.2-6.2,5.5c0,3.1,1.5,4.5,5.7,6.3c3.3,1.5,4.4,2.5,4.4,4.7C224.4,309.1,222.5,310.6,219.9,310.6z"/>
	<polygon fill="#1E3044" points="164.8,312.2 164.8,290.4 162.7,290.4 162.7,308.2 150.4,290.4 148.3,290.4 148.3,312.2 
		150.4,312.2 150.4,293.9 163.1,312.2 	"/>
	<polygon fill="#1E3044" points="65.2,292.4 65.2,290.4 53.8,290.4 53.8,312.2 65.5,312.2 65.5,310.3 56,310.3 56,301.8 63.6,301.8 
		63.2,299.9 56,299.9 56,292.4 	"/>
	<polygon fill="#1E3044" points="206.3,292.4 206.3,290.4 194.9,290.4 194.9,312.2 206.6,312.2 206.6,310.3 197.1,310.3 
		197.1,301.8 204.7,301.8 204.3,299.9 197.1,299.9 197.1,292.4 	"/>
	<polygon fill="#1E3044" points="140.5,310.3 131,310.3 131,301.8 138.6,301.8 138.3,299.9 131,299.9 131,292.4 140.2,292.4 
		140.2,290.4 128.9,290.4 128.9,312.2 140.5,312.2 	"/>
	<path fill="#1E3044" d="M260.7,312.2h2.2l-8.6-21.9h-2.2l-8.6,21.9h2.2l2.7-7h9.5L260.7,312.2z M249.2,303.3l4-10.4l4,10.4H249.2z"
		/>
	<path fill="#1E3044" d="M45.7,296.4c0-3.8-2.7-5.9-7-5.9h-5.6v21.8h2.2v-9.6h2.8l6.9,9.6h2.6l-7.2-9.8
		C43.6,301.7,45.7,299.8,45.7,296.4z M38.3,300.7h-2.9v-8.4h3.3c3.2,0,4.9,1.5,4.9,4.1C43.5,299.3,41.5,300.7,38.3,300.7z"/>
	<polygon fill="#1E3044" points="265.2,290.4 265.2,292.4 272.2,292.4 272.2,312.2 274.4,312.2 274.4,292.4 281.5,292.4 
		281.2,290.4 	"/>
	<path fill="#1E3044" d="M181.4,292c2.2,0,4.1,0.9,5.8,2.1l0.3-2.2c-1.6-1.1-3.7-1.9-6.1-1.9c-6,0-10,4.6-10,11.3
		c0,6.7,4,11.3,9.9,11.3c2.6,0,5-0.9,6.6-2.2l-0.3-2.1c-1.8,1.4-3.9,2.3-6.2,2.3c-4.7,0-7.7-3.8-7.7-9.3
		C173.6,295.8,176.6,292,181.4,292z"/>
	<rect x="92.2" y="290.4" fill="#1E3044" width="2.2" height="21.8"/>
	<path fill="#1E3044" d="M84.1,306.5c0-3.2-1.6-4.8-5.7-6.5c-3.3-1.5-4.4-2.4-4.4-4.4c0-1.9,1.4-3.4,4-3.4c1.8,0,3.3,0.6,4.6,1.4
		l0.3-2.2c-1.1-0.7-2.7-1.1-4.8-1.1c-3.6,0-6.2,2.2-6.2,5.5c0,3.1,1.5,4.5,5.7,6.3c3.3,1.5,4.4,2.5,4.4,4.7c0,2.5-1.9,3.9-4.5,3.9
		c-2.2,0-4.2-0.8-5.6-1.6l-0.3,2.2c1.4,0.8,3.3,1.4,5.8,1.4C81.2,312.5,84.1,310.2,84.1,306.5z"/>
	<path fill="#1E3044" d="M281.2,193.3c-9.1,14.9-27.5,25.3-49.6,25.3c-8,0-15.2-1.2-21.4-3.2l-0.8,13.6h-41.1l0,26.1h113V193.3z"/>
	<path fill="#1E3044" d="M52.3,33H33v24.3C35.5,47.9,42.1,38.8,52.3,33z"/>
	<path fill="#1E3044" d="M33,144c0,0,29.2-19.2,48.9-37.1c24.1-21.8,27-32.3,26.9-42.7c-0.1-14.8-12.2-23.5-30.2-23.5
		c-19.4,0-38.3,16.5-24.3,39.5L46.1,89c-6.9-3.6-11.2-9.3-13-15.7V144z"/>
	<polygon fill="#1E3044" points="148.4,218 148.4,142.2 99.3,218 	"/>
	<path fill="#1E3044" d="M98.4,111.7c-10.5,9.1-38.8,29.7-38.8,29.7h73.2l27.5-40.8h7.9V218h3.1c15.7,0,23.1-2.5,27.3-7.6
		c-12.3-7-18.9-17-18.9-23.5c0-3.9,2.5-8.2,7.3-8.2c6.5,0,8.1,9.8,14.9,16.6c4.8,5.1,12.3,10.9,27.5,10.9
		c23.3,0,33.1-13.9,33.1-34.4c0-16-7.6-33.4-28.3-37.9c-5.6,4.5-9.8,12.9-15.4,12.9c-2.5,0-5.9-2.2-5.9-6.5c0-3.9,3.1-7.3,7.3-10.4
		l20.8-16.6c10.1-7.9,18.5-21.3,18.5-35.9c0-16-12.3-25.8-30.6-25.8c-16.6,0-38.7,16.8-24.1,42.1l-8.4,8.7
		c-33.7-20.2-16.3-62.6,32.5-62.6c24.1,0,47.1,11,52.4,29.4V33h-170c13.1,6.4,20.9,17.1,20.9,31C132.2,86.5,108.9,102.6,98.4,111.7z
		"/>
	<path fill="#1E3044" d="M281.2,85.7c-5,18.2-24.7,31-24.7,31l-12.9,9.8c17.4,3.6,30.4,12.2,37.6,23.7V85.7z"/>
	<path fill="#1E3044" d="M33,255.1h115.4l0-26.1H80.3v-6.1l38.3-59.4c-2.4-4.9-5.4-7.3-23.5-7.3H33V255.1z"/>
</g>
</svg>
