<?xml version="1.0"?>
<svg width="247.5" height="322.1" xmlns="http://www.w3.org/2000/svg">

 <g>
  <title>background</title>
  <rect fill="none" id="canvas_background" height="324.1" width="249.5" y="-1" x="-1"/>
 </g>
 <g>
  <title>Layer 1</title>
  <g id="svg_3">
   <path id="svg_4" d="m244.400009,305.899963c0,-8.699982 -5.400009,-13.199982 -13.400009,-13.199982l-5.599991,0l0,26.5l5.599991,0c8.199997,-0.099976 13.400009,-4.499969 13.400009,-13.300018z" fill="none"/>
   <path id="svg_5" d="m154,298.700012c0,-3.900024 -2.499985,-6.099976 -7.199997,-6.099976l-4.899979,0l0,12.399994l4.299988,0c4.799988,0 7.799988,-2.200073 7.799988,-6.300018z" fill="none"/>
   <path id="svg_6" d="m77.200005,259.400024l-3.800003,0l0,17.899994l3.800003,0c5.5,0 9.099998,-3 9.099998,-8.899994c-0.099998,-5.900024 -3.700005,-9 -9.099998,-9z" fill="none"/>
   <polygon id="svg_7" points="215.60000610351562,270.3000183105469 223.69998168945312,270.3000183105469 219.60000610351562,259.89996337890625 " fill="none"/>
   <polygon id="svg_8" points="204,293.3000183105469 198.10000610351562,308.70001220703125 210,308.70001220703125 " fill="none"/>
   <path id="svg_9" d="m175.200012,319.700012c6.799988,0 11.199997,-5.600006 11.199997,-13.799988c0,-8.299988 -4.500015,-13.899994 -11.300003,-13.899994s-11.200012,5.600006 -11.200012,13.799957c0,8.300018 4.500015,13.900024 11.300018,13.900024z" fill="none"/>
   <path id="svg_10" d="m5.100006,259.400024l-3.299999,0l0,8.399933l2.899998,0c3.200001,0 5.200001,-1.499939 5.200001,-4.199982c0,-2.700012 -1.700005,-4.199951 -4.799999,-4.199951z" fill="none"/>
   <polygon id="svg_11" points="82.70000457763672,292.60003662109375 82.70000457763672,289.70001220703125 65.9000015258789,289.70001220703125 65.9000015258789,322.0000305175781 83.20000457763672,322.0000305175781 83.20000457763672,319.1000061035156 69.10000610351562,319.1000061035156 69.10000610351562,306.60003662109375 80.30000305175781,306.60003662109375 79.80001068115234,303.70001220703125 69.10000610351562,303.70001220703125 69.10000610351562,292.60003662109375 " fill="#1E3044"/>
   <path id="svg_12" d="m175.100006,322.600037c8.699982,0 14.600006,-6.900024 14.600006,-16.800049c0,-9.899963 -5.800018,-16.699982 -14.5,-16.699982c-8.600006,0 -14.600006,6.900024 -14.600006,16.800018c0,9.899933 5.900009,16.700012 14.5,16.700012zm0,-30.600006c6.799988,0 11.300003,5.600006 11.300003,13.899933c0,8.200043 -4.400009,13.800049 -11.199997,13.800049s-11.300018,-5.600006 -11.300018,-13.900055c0,-8.199921 4.400009,-13.799927 11.200012,-13.799927z" fill="#1E3044"/>
   <polygon id="svg_13" points="31.800003051757812,322.0000305175781 31.800003051757812,292.60003662109375 42.400001525878906,292.60003662109375 41.900001525878906,289.70001220703125 18.10000228881836,289.70001220703125 18.10000228881836,292.60003662109375 28.60000228881836,292.60003662109375 28.60000228881836,322.0000305175781 " fill="#1E3044"/>
   <path id="svg_14" d="m7.800007,319.5c-3.300003,0 -6.300003,-1.199982 -8.200001,-2.399994l-0.5,3.300018c2.099998,1.099976 5,2 8.600002,2c5.699997,0 10,-3.399994 10,-8.900024c0,-4.700043 -2.400002,-7.099976 -8.400002,-9.700043c-5,-2.199921 -6.5,-3.599945 -6.5,-6.499939c0,-2.800018 2.099998,-5.100006 5.900002,-5.100006c2.699997,0 5,0.800018 6.799995,2.100006l0.5,-3.200012c-1.699997,-1 -4.099998,-1.699982 -7.099998,-1.699982c-5.299999,0 -9.299999,3.200012 -9.299999,8.099976c0,4.600006 2.200001,6.600006 8.399998,9.399963c4.900002,2.200043 6.5,3.700073 6.5,6.899994c-0.099998,3.600067 -2.900002,5.700043 -6.699997,5.700043z" fill="#1E3044"/>
   <path id="svg_15" d="m197,311.600037l14.100021,0l4.099976,10.399994l3.300018,0l-12.699997,-32.399994l-3.400009,0l-12.699997,32.399994l3.299988,0l4,-10.399994zm7,-18.300018l6,15.399963l-11.899979,0l5.899979,-15.399963z" fill="#1E3044"/>
   <polygon id="svg_16" points="103.00000762939453,319.1000061035156 90.50000762939453,319.1000061035156 90.50000762939453,289.70001220703125 87.30000305175781,289.70001220703125 87.30000305175781,322.0000305175781 103.4000015258789,322.0000305175781 " fill="#1E3044"/>
   <polygon id="svg_17" points="62.100006103515625,319.1000061035156 48.00000762939453,319.1000061035156 48.00000762939453,306.60003662109375 59.20000457763672,306.60003662109375 58.70000457763672,303.70001220703125 48.00000762939453,303.70001220703125 48.00000762939453,292.60003662109375 61.599998474121094,292.60003662109375 61.599998474121094,289.70001220703125 44.80000305175781,289.70001220703125 44.80000305175781,322.0000305175781 62.100006103515625,322.0000305175781 " fill="#1E3044"/>
   <path id="svg_18" d="m247.699982,305.799957c0,-9.599976 -6,-16.099976 -16.799988,-16.099976l-8.799973,0l0,32.300049l8.699966,0c10.400009,0 16.899994,-6.300018 16.899994,-16.200073zm-22.299973,-13.199921l5.599991,0c8,0 13.400009,4.499969 13.400009,13.199951c0,8.800049 -5.200012,13.200043 -13.400009,13.200043l-5.599991,0l0,-26.399994z" fill="#1E3044"/>
   <path id="svg_19" d="m142,307.700012l4.200012,0l10.200012,14.200012l3.799988,0l-10.5,-14.700012c4.400009,-0.899963 7.700012,-3.799988 7.700012,-8.799988c0,-5.600037 -4,-8.799988 -10.300003,-8.799988l-8.199997,0l0,32.399994l3.199997,0l0,-14.300018l-0.100021,0zm0,-15.099976l4.900024,0c4.699982,0 7.199997,2.199951 7.199997,6.099976c0,4.099976 -3,6.300018 -7.800003,6.300018l-4.300018,0l0,-12.399994z" fill="#1E3044"/>
   <polygon id="svg_20" points="123.4000015258789,319.1000061035156 109.29999542236328,319.1000061035156 109.29999542236328,306.60003662109375 120.50000762939453,306.60003662109375 120.0999984741211,303.70001220703125 109.29999542236328,303.70001220703125 109.29999542236328,292.60003662109375 122.9000015258789,292.60003662109375 122.9000015258789,289.70001220703125 106.0999984741211,289.70001220703125 106.0999984741211,322.0000305175781 123.4000015258789,322.0000305175781 " fill="#1E3044"/>
   <path id="svg_21" d="m88.500008,268.300018c0,-6.500061 -4.100006,-10.899994 -11.300003,-10.899994l-5.899994,0l0,21.799957l5.799995,0c6.900002,0.000031 11.400002,-4.199951 11.400002,-10.899963zm-11.300003,9l-3.800003,0l0,-17.899994l3.800003,0c5.399994,0 9.099998,3.099976 9.099998,8.899994c-0.099998,6 -3.599998,9 -9.099998,9z" fill="#1E3044"/>
   <path id="svg_22" d="m186.300003,277.600037c-2.199997,0 -4.199997,-0.800049 -5.600021,-1.600006l-0.299988,2.199982c1.399994,0.800018 3.299988,1.400024 5.800003,1.400024c3.799988,0 6.799988,-2.299988 6.799988,-6c0,-3.200012 -1.599991,-4.800049 -5.699982,-6.500031c-3.300018,-1.499969 -4.400024,-2.399994 -4.400024,-4.399994c0,-1.900024 1.400024,-3.399963 4,-3.399963c1.800003,0 3.300018,0.599976 4.600021,1.399963l0.299988,-2.200012c-1.100006,-0.700012 -2.699982,-1.099976 -4.800003,-1.099976c-3.599991,0 -6.199997,2.200012 -6.199997,5.5c0,3.100006 1.500015,4.5 5.700012,6.299988c3.299988,1.5 4.399979,2.5 4.399979,4.700012c-0.099991,2.199982 -1.999985,3.700012 -4.599976,3.700012z" fill="#1E3044"/>
   <polygon id="svg_23" points="131.20001220703125,279.20001220703125 131.20001220703125,257.4000244140625 129.10000610351562,257.4000244140625 129.10000610351562,275.20001220703125 116.79999542236328,257.4000244140625 114.70000457763672,257.4000244140625 114.70000457763672,279.20001220703125 116.79999542236328,279.20001220703125 116.79999542236328,260.89996337890625 129.50001525878906,279.20001220703125 " fill="#1E3044"/>
   <polygon id="svg_24" points="31.599998474121094,259.4000244140625 31.599998474121094,257.4000244140625 20.200000762939453,257.4000244140625 20.200000762939453,279.20001220703125 31.900001525878906,279.20001220703125 31.900001525878906,277.3000183105469 22.400005340576172,277.3000183105469 22.400005340576172,268.7999572753906 30.000003814697266,268.7999572753906 29.60000228881836,266.89996337890625 22.400005340576172,266.89996337890625 22.400005340576172,259.4000244140625 " fill="#1E3044"/>
   <polygon id="svg_25" points="172.70001220703125,259.4000244140625 172.70001220703125,257.4000244140625 161.3000030517578,257.4000244140625 161.3000030517578,279.20001220703125 173,279.20001220703125 173,277.3000183105469 163.50001525878906,277.3000183105469 163.50001525878906,268.7999572753906 171.10000610351562,268.7999572753906 170.70001220703125,266.89996337890625 163.50001525878906,266.89996337890625 163.50001525878906,259.4000244140625 " fill="#1E3044"/>
   <polygon id="svg_26" points="106.9000015258789,277.3000183105469 97.4000015258789,277.3000183105469 97.4000015258789,268.7999572753906 105.00000762939453,268.7999572753906 104.70000457763672,266.89996337890625 97.4000015258789,266.89996337890625 97.4000015258789,259.4000244140625 106.5999984741211,259.4000244140625 106.5999984741211,257.4000244140625 95.29999542236328,257.4000244140625 95.29999542236328,279.20001220703125 106.9000015258789,279.20001220703125 " fill="#1E3044"/>
   <path id="svg_27" d="m227.100021,279.200012l2.199997,0l-8.599991,-21.899963l-2.200012,0l-8.600021,21.899963l2.200027,0l2.699997,-7l9.5,0l2.800003,7zm-11.500015,-8.899994l4,-10.400055l4,10.400055l-8,0z" fill="#1E3044"/>
   <path id="svg_28" d="m12.100002,263.400024c0,-3.800049 -2.699997,-5.900024 -6.999996,-5.900024l-5.600002,0l0,21.800018l2.200001,0l0,-9.600037l2.799999,0l6.900002,9.600037l2.599998,0l-7.199997,-9.800018c3.199997,-0.799988 5.299995,-2.700043 5.299995,-6.099976zm-7.399998,4.299988l-2.899998,0l0,-8.399963l3.299999,0c3.200001,0 4.899998,1.499939 4.899998,4.099976c-0.099998,2.899994 -2.099998,4.299988 -5.299999,4.299988z" fill="#1E3044"/>
   <polygon id="svg_29" points="231.60000610351562,257.4000244140625 231.60000610351562,259.4000244140625 238.60000610351562,259.4000244140625 238.60000610351562,279.20001220703125 240.79998779296875,279.20001220703125 240.79998779296875,259.4000244140625 247.89999389648438,259.4000244140625 247.60000610351562,257.4000244140625 " fill="#1E3044"/>
   <path id="svg_30" d="m147.799988,259.000031c2.199997,0 4.099991,0.899933 5.800018,2.099976l0.299973,-2.200043c-1.599976,-1.100006 -3.699982,-1.899933 -6.099991,-1.899933c-6,0 -10,4.600006 -10,11.299988c0,6.700012 4,11.300018 9.899994,11.300018c2.600021,0 5,-0.900024 6.600021,-2.200012l-0.300018,-2.100006c-1.799988,1.399994 -3.899979,2.300018 -6.199997,2.300018c-4.699982,0 -7.699982,-3.800079 -7.699982,-9.300018c-0.100006,-5.500061 2.899994,-9.299988 7.699982,-9.299988z" fill="#1E3044"/>
   <rect id="svg_31" height="21.8" width="2.2" fill="#1E3044" y="257.4" x="58.600005"/>
   <path id="svg_32" d="m50.500008,273.5c0,-3.199982 -1.600006,-4.799988 -5.700005,-6.499969c-3.299995,-1.500031 -4.400002,-2.399994 -4.400002,-4.399994c0,-1.900024 1.400002,-3.400024 4,-3.400024c1.800003,0 3.300003,0.599945 4.600006,1.400024l0.300003,-2.200012c-1.100006,-0.700012 -2.700012,-1.100006 -4.800003,-1.100006c-3.600006,0 -6.199997,2.199982 -6.199997,5.499939c0,3.100006 1.499992,4.500061 5.699997,6.300049c3.300003,1.500031 4.399994,2.500031 4.399994,4.699951c0,2.500061 -1.899994,3.900055 -4.5,3.900055c-2.199997,0 -4.199997,-0.800049 -5.599991,-1.600006l-0.300003,2.200012c1.399994,0.799988 3.300003,1.399994 5.799995,1.399994c3.799995,-0.200012 6.700005,-2.5 6.700005,-6.200012z" fill="#1E3044"/>
   <path id="svg_33" d="m247.600006,160.300003c-9.099991,14.899994 -27.499985,25.300003 -49.600006,25.300003c-8,0 -15.199997,-1.200012 -21.399994,-3.200012l-0.800003,13.600006l-41.099976,0l0,26.099991l113,0l0,-61.799988l-0.100021,0z" fill="#1E3044"/>
   <path id="svg_34" d="m18.700008,0l-19.300003,0l0,24.299999c2.5,-9.399998 9.099998,-18.5 19.300003,-24.299999z" fill="#1E3044"/>
   <path id="svg_35" d="m-0.599995,111c0,0 29.199997,-19.199997 48.900005,-37.099998c24.099991,-21.800003 26.999992,-32.300003 26.899994,-42.700005c-0.099998,-14.799995 -12.199997,-23.499996 -30.199997,-23.499996c-19.400005,0 -38.300003,16.5 -24.299999,39.499996l-8.200005,8.800003c-6.899998,-3.599998 -11.199997,-9.300003 -13,-15.699997l0,70.699997l-0.099998,0z" fill="#1E3044"/>
   <polygon id="svg_36" points="114.79999542236328,185 114.79999542236328,109.19999694824219 65.70000457763672,185 " fill="#1E3044"/>
   <path id="svg_37" d="m64.800003,78.699997c-10.499992,9.100006 -38.799999,29.699997 -38.799999,29.699997l73.200001,0l27.5,-40.799995l7.900002,0l0,117.400002l3.100006,0c15.699997,0 23.099976,-2.5 27.299988,-7.600006c-12.299988,-7 -18.899994,-17 -18.899994,-23.5c0,-3.899994 2.5,-8.199997 7.300003,-8.199997c6.499985,0 8.100006,9.800003 14.899994,16.600006c4.800003,5.099991 12.300003,10.899994 27.499985,10.899994c23.300034,0 33.100006,-13.899994 33.100006,-34.399994c0,-16 -7.599991,-33.400009 -28.299988,-37.900009c-5.600006,4.5 -9.800018,12.900009 -15.399994,12.900009c-2.5,0 -5.900009,-2.199997 -5.900009,-6.5c0,-3.900009 3.100006,-7.300003 7.300003,-10.400009l20.800003,-16.599991c10.100006,-7.900002 18.499985,-21.300003 18.499985,-35.900002c0,-16 -12.299988,-25.800003 -30.599991,-25.800003c-16.599991,0 -38.699997,16.800003 -24.099991,42.099991l-8.400024,8.699997c-33.699982,-20.199997 -16.299973,-62.599987 32.500015,-62.599987c24.100006,0 47.100006,11 52.399979,29.399998l0,-36.199997l-169.999977,0c13.100006,6.400002 20.899994,17.099998 20.899994,31c0,22.5 -23.299995,38.599998 -33.799995,47.699997z" fill="#1E3044"/>
   <path id="svg_38" d="m247.600006,52.699997c-5,18.200005 -24.700012,31 -24.700012,31l-12.899994,9.800003c17.400009,3.600006 30.400009,12.199997 37.600006,23.699997l0,-64.5z" fill="#1E3044"/>
   <path id="svg_39" d="m-0.599995,222.099991l115.39999,0l0,-26.099976l-68.099991,0l0,-6.100006l38.300003,-59.400009c-2.400009,-4.899994 -5.400009,-7.300003 -23.5,-7.300003l-62.100002,0l0,98.899994z" fill="#1E3044"/>
  </g>
 </g>
</svg>