<?xml version="1.0" encoding="utf-8"?>
<!-- Generator: Adobe Illustrator 15.0.2, SVG Export Plug-In . SVG Version: 6.00 Build 0)  -->
<!DOCTYPE svg PUBLIC "-//W3C//DTD SVG 1.1//EN" "http://www.w3.org/Graphics/SVG/1.1/DTD/svg11.dtd">
<svg version="1.1" id="Layer_1" xmlns="http://www.w3.org/2000/svg" xmlns:xlink="http://www.w3.org/1999/xlink" x="0px" y="0px"
	 width="259.718px" height="327.755px" viewBox="0 0 259.718 327.755" enable-background="new 0 0 259.718 327.755"
	 xml:space="preserve">
<rect fill="#DBD6C5" width="259.718" height="327.755"/>
<g>
	<defs>
		<rect id="SVGID_1_" x="-12.061" y="-12.008" width="284.516" height="354"/>
	</defs>
	<clipPath id="SVGID_2_">
		<use xlink:href="#SVGID_1_"  overflow="visible"/>
	</clipPath>
	<path clip-path="url(#SVGID_2_)" fill="#1E3044" d="M239.051,294.001c0,7.982-4.731,11.952-12.122,11.952h-5.068v-23.904h5.068
		C234.195,282.049,239.051,286.146,239.051,294.001 M242.049,293.959c0-8.657-5.448-14.528-15.161-14.528h-7.941v29.142h7.814
		C236.136,308.572,242.049,302.912,242.049,293.959 M207.967,296.577H197.24l5.322-13.895L207.967,296.577z M215.623,308.518
		l-11.498-29.256h-2.999l-11.487,29.311h2.956l3.591-9.419h12.754l3.722,9.364H215.623z M186.64,294.043
		c0,7.392-4.012,12.459-10.136,12.459s-10.179-5.067-10.179-12.543c0-7.391,4.012-12.459,10.136-12.459
		S186.64,286.568,186.64,294.043 M189.638,293.959c0-8.912-5.279-15.078-13.134-15.078c-7.771,0-13.177,6.209-13.177,15.162
		c0,8.911,5.32,15.078,13.092,15.078C184.275,309.121,189.638,302.87,189.638,293.959 M153.426,295.311
		c4.013-0.846,6.927-3.421,6.927-7.94c0-5.067-3.633-7.939-9.334-7.939h-7.434v29.142h2.915V295.69h3.758l9.205,12.854h3.437
		L153.426,295.311z M157.396,287.539c0,3.717-2.703,5.659-7.011,5.659H146.5v-11.192h4.392
		C155.115,282.006,157.396,283.991,157.396,287.539 M129.722,308.572v-2.619h-12.713v-11.318h10.136l-0.422-2.618h-9.714v-9.968
		h12.29v-2.618h-15.204v29.142H129.722z M111.701,308.572l-0.423-2.619h-11.234v-26.522h-2.914v29.142H111.701z M93.4,308.572
		v-2.619H80.688v-11.318h10.136l-0.422-2.618h-9.714v-9.968h12.29v-2.618H77.774v29.142H93.4z M74.348,308.572v-2.619H61.634
		v-11.318h10.137l-0.423-2.618h-9.714v-9.968h12.29v-2.618H58.72v29.142H74.348z M56.549,282.049l-0.423-2.618H34.671v2.618h9.461
		v26.523h2.872v-26.523H56.549z M34.231,300.886c0-4.267-2.196-6.378-7.602-8.742c-4.477-1.985-5.871-3.252-5.871-5.913
		c0-2.534,1.901-4.562,5.322-4.562c2.449,0,4.477,0.761,6.124,1.858l0.422-2.914c-1.52-0.887-3.674-1.521-6.419-1.521
		c-4.815,0-8.363,2.913-8.363,7.307c0,4.139,2.027,5.997,7.602,8.447c4.435,1.941,5.871,3.378,5.871,6.25
		c0,3.294-2.576,5.236-5.997,5.236c-2.957,0-5.66-1.056-7.434-2.195l-0.422,2.956c1.858,1.014,4.477,1.815,7.729,1.815
		C30.303,308.909,34.231,305.869,34.231,300.886"/>
	<path clip-path="url(#SVGID_2_)" fill="#1E3044" d="M242.202,252.049l-0.285-1.768h-14.481v1.768h6.386v17.903h1.938v-17.903
		H242.202z M220.304,261.856h-7.242l3.593-9.38L220.304,261.856z M225.468,269.952l-7.76-19.785h-2.023l-7.754,19.785h1.996
		l2.422-6.356h8.609l2.483,6.356H225.468z M192.573,264.765c0-2.88-1.483-4.306-5.132-5.902c-3.022-1.339-3.963-2.195-3.963-3.991
		c0-1.71,1.283-3.079,3.593-3.079c1.653,0,3.022,0.514,4.134,1.255l0.285-1.967c-1.027-0.599-2.48-1.026-4.334-1.026
		c-3.25,0-5.645,1.967-5.645,4.932c0,2.794,1.369,4.049,5.131,5.702c2.994,1.311,3.963,2.281,3.963,4.219
		c0,2.224-1.738,3.535-4.047,3.535c-1.996,0-3.821-0.712-5.019-1.482l-0.284,1.996c1.254,0.685,3.021,1.226,5.217,1.226
		C189.921,270.181,192.573,268.128,192.573,264.765 M174.531,269.952v-1.767h-8.581v-7.642h6.842l-0.284-1.767h-6.558v-6.729h8.296
		v-1.768h-10.263v19.671H174.531z M157.662,268.356l-0.285-1.882c-1.597,1.226-3.507,2.053-5.615,2.053
		c-4.277,0-6.985-3.393-6.985-8.439c0-4.988,2.68-8.409,7.013-8.409c1.996,0,3.706,0.798,5.246,1.909l0.312-1.994
		c-1.481-1.027-3.307-1.683-5.529-1.683c-5.417,0-9.066,4.19-9.066,10.234c0,6.073,3.592,10.178,8.924,10.178
		C154.013,270.323,156.179,269.469,157.662,268.356 M136.761,269.952v-19.671h-1.854v16.051l-11.146-16.051h-1.853v19.671h1.853
		V253.39l11.489,16.562H136.761z M114.871,269.952v-1.767h-8.581v-7.642h6.842l-0.285-1.767h-6.557v-6.729h8.296v-1.768h-10.263
		v19.671H114.871z M96.157,260.117c0,5.388-3.193,8.068-8.182,8.068h-3.421v-16.137h3.421
		C92.878,252.049,96.157,254.814,96.157,260.117 M98.181,260.088c0-5.844-3.677-9.807-10.234-9.807h-5.36v19.671h5.274
		C94.189,269.952,98.181,266.132,98.181,260.088 M73.204,250.281h-1.967v19.671h1.967V250.281z M63.902,264.765
		c0-2.88-1.482-4.306-5.132-5.902c-3.022-1.339-3.962-2.195-3.962-3.991c0-1.71,1.283-3.079,3.592-3.079
		c1.653,0,3.022,0.514,4.134,1.255l0.285-1.967c-1.027-0.599-2.481-1.026-4.334-1.026c-3.25,0-5.644,1.967-5.644,4.932
		c0,2.794,1.368,4.049,5.131,5.702c2.994,1.311,3.963,2.281,3.963,4.219c0,2.224-1.739,3.535-4.048,3.535
		c-1.996,0-3.821-0.712-5.018-1.482l-0.285,1.996c1.254,0.685,3.022,1.226,5.217,1.226C61.25,270.181,63.902,268.128,63.902,264.765
		 M47.082,269.952v-1.767H38.5v-7.642h6.842l-0.285-1.767H38.5v-6.729h8.296v-1.768H36.534v19.671H47.082z M24.568,261.001
		c2.709-0.57,4.676-2.31,4.676-5.359c0-3.421-2.452-5.36-6.301-5.36h-5.017v19.671h1.967v-8.695h2.537l6.234,8.637h2.369
		L24.568,261.001z M27.248,255.755c0,2.51-1.825,3.82-4.732,3.82h-2.623v-7.555h2.965C25.708,252.021,27.248,253.36,27.248,255.755"
		/>
	<path clip-path="url(#SVGID_2_)" fill="#1E3044" d="M17.776,129.004v89.355h104.187l0.004-23.6H60.476v-5.52l34.608-53.678
		c-2.124-4.426-4.916-6.559-21.199-6.559H17.776z M121.967,116.448l-44.341,68.435h44.341V116.448z M86.303,46.052
		C86.171,32.669,75.281,24.85,59.063,24.85c-17.486,0-34.593,14.867-21.922,35.646l-7.603,7.856
		c-6.228-3.277-10.088-8.387-11.762-14.219v63.932c0,0,26.371-17.378,44.199-33.495C83.736,64.898,86.395,55.428,86.303,46.052
		 M35.187,17.771H17.776v21.934C19.983,31.255,25.929,23.063,35.187,17.771 M241.943,50.51V17.771H88.428
		c11.854,5.742,18.908,15.41,18.908,28.027c0,20.272-21.001,34.828-30.489,43.041c-9.488,8.213-35.07,26.775-35.07,26.775h66.111
		l24.859-36.844h7.16v106.111h2.82c14.175,0,20.828-2.239,24.62-6.908c-11.147-6.341-17.11-15.339-17.11-21.219
		c0-3.547,2.277-7.446,6.585-7.446c5.829,0,7.349,8.869,13.431,14.951c4.309,4.562,11.15,9.883,24.834,9.883
		c21.033,0,29.906-12.573,29.906-31.072c0-14.443-6.842-30.155-25.594-34.21c-5.068,4.055-8.87,11.656-13.938,11.656
		c-2.281,0-5.322-2.027-5.322-5.828c0-3.548,2.787-6.589,6.589-9.376l18.752-14.952c9.123-7.095,16.726-19.259,16.726-32.436
		c0-14.445-11.149-23.314-27.621-23.314c-14.953,0-34.972,15.205-21.795,38.012l-7.602,7.854
		c-30.409-18.245-14.698-56.51,29.396-56.51C216.35,23.969,237.136,33.897,241.943,50.51 M241.943,123.638V65.396
		c-4.52,16.424-22.27,28.007-22.27,28.007l-11.657,8.87C223.737,105.515,235.492,113.33,241.943,123.638 M241.943,218.359v-55.83
		c-8.245,13.486-24.857,22.862-44.824,22.862c-7.244,0-13.693-1.102-19.343-2.884l-0.703,12.252h-37.165l0.006,23.6H241.943z"/>
</g>
</svg>
